<?xml version="1.0" encoding="utf-8"?>
<svg version="1.1" id="svg2" width="902.08002" height="1305.6" viewBox="0 0 902.08002 1305.6" xmlns="http://www.w3.org/2000/svg">
  <path style="stroke-width: 0.32;" d="m 451.31169,1303.0102 c -0.55459,-0.1607 -1.53075,-0.8317 -2.16925,-1.4912 -0.63849,-0.6594 -11.82867,-16.823 -24.86704,-35.919 -30.60982,-44.8311 -48.46496,-70.8517 -64.55683,-94.08 -7.1328,-10.296 -13.70979,-19.8 -14.61559,-21.12 -2.08438,-3.0376 -2.52409,-4.6707 -1.89865,-7.0518 0.25257,-0.9615 2.55197,-7.8682 5.10976,-15.3482 26.84688,-78.5104 41.20358,-135.63862 48.14499,-191.57888 1.73805,-14.00678 3.24397,-31.78202 3.69555,-43.62112 0.0974,-2.552 0.25389,-5.828 0.34787,-7.28 l 0.17088,-2.64 h -9.13059 -9.13059 l -0.14934,0.72 c -0.0822,0.396 -0.74234,4.32 -1.46714,8.72 -11.22778,68.16182 -27.19245,128.2198 -46.69942,175.68 -4.90448,11.9325 -12.99194,29.571 -14.15886,30.88 -1.68231,1.8872 -4.27919,2.6812 -6.72689,2.0568 -0.82677,-0.2109 -1.86735,-0.652 -2.3124,-0.9802 -0.76194,-0.5618 -15.00372,-21.077 -37.29036,-53.7166 -7.22546,-10.582 -9.92801,-14.7905 -10.19283,-15.8727 -0.45539,-1.8611 -0.67141,-1.0756 6.98693,-25.4073 14.59402,-46.36742 19.79434,-65.78259 23.48496,-87.68 1.96082,-11.63398 3.38755,-24.79347 3.39134,-31.28 l 0.002,-3.12 -18.16,-0.004 c -18.99594,-0.004 -20.2077,-0.0816 -22.25922,-1.42579 -1.17707,-0.77123 -2.0104,-2.25571 -2.43098,-4.3304 -0.57139,-2.81869 -1.01171,-82.55088 -0.46736,-84.62941 0.73134,-2.79254 2.1174,-4.10259 5.09217,-4.81286 1.51633,-0.36205 5.29267,-0.45725 18.49454,-0.46634 l 16.58916,-0.0115 -0.20381,-5.68 c -0.64389,-17.94454 -1.39061,-23.66646 -4.17778,-32.01322 -1.77946,-5.32896 -4.85425,-11.68364 -7.80199,-16.12441 -2.71402,-4.08871 -8.2795,-10.00272 -12.13941,-12.89962 -3.32434,-2.49494 -8.53012,-5.23798 -12.40376,-6.53577 -5.07305,-1.69962 -12.48245,-2.04368 -17.31663,-0.8041 -2.88467,0.73968 -8.6447,3.71712 -11.04328,5.70842 -8.03295,6.66892 -13.919,18.93449 -15.75395,32.8287 -0.92815,7.028 -1.01612,11.57779 -0.6125,31.68 0.49857,24.83152 0.64745,26.76442 4.43657,57.6 3.84232,31.26848 4.47511,38.83789 4.46753,53.44 -0.006,11.9423 -0.2912,15.2449 -1.95914,22.70323 -2.17128,9.70909 -5.71504,16.46599 -10.76539,20.5264 -2.81097,2.25997 -6.22628,2.59392 -8.5977,0.84064 -1.05049,-0.77667 0.78208,1.86013 -33.07533,-47.59027 C 152.79169,869.848 120.17963,822.256 94.720508,785.12 69.261387,747.984 39.305258,704.28 28.151336,688 16.344036,670.76634 7.6747611,657.81002 7.4006242,656.98781 6.7400469,655.00659 7.2797637,652.60243 8.9109663,650.26006 12.086543,645.7 91.608312,529.60886 205.07827,363.88208 213.73981,351.23158 213.77062,351.2 217.444,351.2 c 2.71376,0 2.46779,-0.1457 10.21868,6.05283 43.80832,35.03431 79.9351,88.11245 105.21726,154.58717 26.92247,70.78771 43.4122,158.68806 48.38461,257.92 0.26458,5.28 0.57079,11.364 0.68048,13.52 l 0.19943,3.92 h 8.6591 8.6591 l -0.20569,-15.6 C 398.28465,697.8631 389.53825,625.73014 374.23985,565.28 350.08698,469.84234 309.24972,389.29843 252.34063,324.85658 c -9.13847,-10.34809 -9.04982,-10.23769 -9.42831,-11.74082 -0.19377,-0.76954 -0.34599,-1.7314 -0.33827,-2.13746 0.0383,-2.01226 -3.6754,3.49205 78.86977,-116.8983 30.04204,-43.81563 118.77209,-173.01152 124.72054,-181.6 2.87517,-4.1511997 3.46819,-4.697681 5.75139,-5.2999843 2.13213,-0.5624407 4.33568,-0.080057 5.83879,1.278176 C 458.94423,9.5331862 537.58392,123.89902 634.5692,265.6 c 22.60441,33.02635 29.34208,43.08927 29.69296,44.34736 0.39965,1.43289 0.39366,1.83442 -0.0501,3.36 -0.43802,1.50584 -1.18026,2.4866 -5.67059,7.49264 -18.7664,20.92163 -34.75828,41.88438 -49.55616,64.96 -33.96401,52.96314 -59.46631,113.39962 -76.3594,180.96 -15.13184,60.51677 -23.73609,131.81411 -24.68073,204.51235 l -0.20624,15.87239 8.55779,0.23369 c 4.70675,0.12855 8.60643,0.18509 8.66589,0.12563 0.0595,-0.0594 0.3383,-5.0032 0.61968,-10.98608 3.43027,-72.94156 11.94038,-134.56294 26.7807,-193.91798 20.23811,-80.9441 50.69261,-144.06054 92.71962,-192.16 5.14483,-5.88819 19.10105,-19.9399 24.51737,-24.68509 9.60775,-8.41731 16.63908,-13.79158 18.6986,-14.29193 2.29475,-0.55754 4.35597,0.0724 6.03939,1.84553 0.75789,0.79834 18.47389,26.43549 39.36886,56.97149 55.84788,81.61622 100.89444,147.39709 135.20644,197.44 19.64858,28.65677 30.54726,44.82893 30.83853,45.76 0.99312,3.17488 2.36822,0.94976 -28.03923,45.37126 -15.26605,22.3018 -41.77597,60.99674 -58.91092,85.98874 -17.13494,24.992 -44.4688,64.88 -60.74192,88.64 -16.27309,23.76 -32.91302,48.05219 -36.9776,53.98266 -7.82592,11.41852 -8.19578,11.83292 -10.95526,12.27417 -3.73904,0.59789 -8.00698,-2.78253 -12.0913,-9.57689 -2.31526,-3.85152 -4.38323,-10.84372 -5.72349,-19.35223 -0.61341,-3.89437 -0.68838,-5.66816 -0.69177,-16.36771 -0.005,-15.24192 0.6223,-22.68288 4.61187,-54.72 3.62393,-29.10122 3.94166,-33.54362 4.42195,-61.8255 0.30221,-17.79626 -0.098,-24.57741 -1.9127,-32.4145 -1.60999,-6.9527 -5.46925,-15.78733 -8.88362,-20.33635 -4.69498,-6.25517 -12.07885,-11.06682 -18.60899,-12.12637 -2.66343,-0.43216 -7.58781,-0.42794 -10.74567,0.009 -2.6071,0.36093 -7.20627,1.92512 -10.50317,3.57213 -7.04067,3.51725 -14.30755,10.17222 -19.13238,17.52134 -2.18438,3.32723 -6.03709,11.33111 -7.39363,15.36 -2.75872,8.19347 -3.61843,14.68397 -4.20679,31.76 l -0.20672,6 5.38976,0.0369 c 15.06122,0.103 29.78436,0.52672 30.91581,0.88966 1.61831,0.51914 3.31866,2.28381 3.8072,3.9512 0.42656,1.45594 0.42743,1.98544 0.0887,55.92227 -0.1169,18.61949 -0.29424,28.53603 -0.52931,29.6 -0.4648,2.10362 -1.4041,3.48787 -2.96141,4.36426 -1.72698,0.97184 -6.2369,1.18931 -25.20327,1.21526 l -14.952,0.0205 0.13674,0.88 c 0.0752,0.484 0.2193,2.96605 0.32019,5.51568 0.43965,11.1097 2.64819,26.78979 5.92755,42.08432 3.89629,18.17184 8.78605,35.47981 20.76874,73.5136 7.59862,24.1185 7.4143,23.4524 7.01232,25.3372 -0.35002,1.6411 -1.39075,3.1952 -30.18154,45.0697 -18.7095,27.2119 -17.43523,25.6894 -21.48201,25.6668 -1.86295,-0.01 -2.48528,-0.152 -3.38887,-0.7711 -1.5775,-1.081 -2.11443,-1.9815 -5.55184,-9.311 -24.67219,-52.6081 -42.86934,-116.10155 -56.62409,-197.57227 -0.97936,-5.8009 -1.82084,-10.58723 -1.86992,-10.63632 -0.0491,-0.0491 -4.14807,0.004 -9.10884,0.11859 l -9.01952,0.20787 0.16532,3.38845 c 0.0909,1.86368 0.31318,6.41248 0.49388,10.10848 1.72887,35.35479 7.5514,74.28791 17.3002,115.68 7.60742,32.3001 17.86572,66.9468 33.25878,112.3291 3.1921,9.411 5.99168,17.8569 6.22131,18.7687 0.44909,1.783 0.14864,4.2927 -0.62521,5.2222 -1.55389,1.8666 -42.76423,61.7971 -77.89537,113.28 -14.47196,21.208 -26.79436,39.0175 -27.38304,39.5766 -1.62812,1.5464 -4.28329,2.0766 -6.7791,1.3536 z m 7.97363,-13.8902 c 48.60861,-71.2029 70.17418,-102.6474 88.26916,-128.704 l 10.48896,-15.104 -1.39648,-3.9597 c -5.21674,-14.7921 -14.74429,-43.8501 -20.32602,-61.9923 -22.63818,-73.5803 -34.65776,-138.41491 -36.0544,-194.48 l -0.20928,-8.4 h 15.09139 c 8.30026,0 15.09155,0.108 15.09181,0.24 0,0.66278 4.36742,26.44301 5.92086,34.96 12.99565,71.25056 30.11853,128.4897 52.96365,177.0495 1.63776,3.4813 3.09533,6.2893 3.23904,6.24 0.24064,-0.082 21.32852,-30.6267 38.15264,-55.2612 3.89584,-5.7045 7.03792,-10.6005 6.98237,-10.88 -0.0555,-0.2796 -2.81955,-9.1483 -6.14224,-19.7083 -15.22201,-48.37789 -20.90851,-69.75277 -24.77331,-93.12 -2.14157,-12.94832 -3.59709,-28.91075 -3.32643,-36.48 l 0.10297,-2.88 21.68,-0.0822 21.68,-0.0822 2e-4,-10.79776 c 9e-5,-5.93875 0.0958,-24.51376 0.21276,-41.27776 l 0.21261,-30.48 h -14.4015 c -7.9208,0 -17.01655,-0.0947 -20.21277,-0.2105 l -5.8113,-0.21049 0.003,-5.78951 c 0.004,-12.10755 0.88016,-24.24656 2.22797,-30.8583 5.39744,-26.47702 23.00861,-46.27466 44.59709,-50.13389 4.50067,-0.80457 11.36778,-0.53216 15.5112,0.61527 6.03098,1.67017 10.60624,4.34598 15.42323,9.02019 3.89204,3.77667 6.51463,7.42128 9.0977,12.6431 4.15658,8.40272 6.66358,18.53085 7.51242,30.34967 0.32128,4.47324 -0.0822,32.87401 -0.61399,43.21446 -0.40752,7.9249 -1.41795,18.04762 -3.33789,33.44 -4.5032,36.10275 -5.54774,48.68912 -5.1918,62.56 0.3472,13.53069 2.16272,22.40915 5.8862,28.78531 1.48951,2.55066 5.02749,6.39072 5.46788,5.93469 0.16995,-0.176 4.6927,-6.728 10.05056,-14.56 18.41289,-26.91552 46.20243,-67.48045 90.64758,-132.32 24.49024,-35.728 54.71991,-79.84979 67.17706,-98.04842 l 22.64931,-33.08838 -2.22221,-3.23162 C 882.43308,638.69494 821.57218,549.85325 744.15995,436.8 718.67115,399.576 696.01474,366.49411 693.81237,363.2847 l -4.00429,-5.83526 -1.14403,0.85578 c -12.42602,9.29532 -27.25143,23.19865 -39.00042,36.57478 -68.92067,78.46547 -108.82999,206.4473 -117.35011,376.32 -0.27808,5.544 -0.60637,12.888 -0.72954,16.32 l -0.22397,6.24 -14.96883,0.0832 c -13.5903,0.0755 -14.98726,0.0351 -15.16902,-0.43856 -0.24154,-0.62941 0.41904,-37.22842 0.86278,-47.80461 3.96467,-94.49037 18.57978,-175.0521 45.0199,-248.15965 C 572.28779,427.8089 608.55605,366.44902 654.518,315.71516 l 3.73686,-4.12484 -0.53785,-0.83516 C 656.15029,308.32248 571.58606,184.84704 538.68206,136.94774 454.82945,14.881043 453.61534,13.127423 453.23169,13.52504 452.75031,14.023945 362.7393,145.03688 311.04555,220.48 c -54.05109,78.88347 -61.84776,90.30928 -61.88632,90.69271 -0.0216,0.21456 2.1434,2.82848 4.81105,5.8087 31.07501,34.71613 56.89359,72.87907 78.46358,115.97859 6.4882,12.96426 8.98704,18.29165 13.80896,29.44 33.27556,76.93344 52.65447,166.04416 58.07322,267.04 1.10358,20.5689 2.1497,63.27853 1.56349,63.83366 -0.15373,0.14557 -6.97552,0.31456 -15.15952,0.37552 l -14.88,0.11082 -0.21783,-5.92 c -5.6287,-152.97942 -36.57401,-274.83242 -90.66053,-356.9929 -8.86118,-13.46064 -17.3464,-24.62025 -27.95583,-36.7671 -4.60996,-5.27798 -20.0536,-20.63773 -25.40501,-25.26701 -5.46862,-4.73065 -13.73264,-11.35488 -14.16081,-11.35094 -0.176,0.003 -30.2,43.65933 -66.72,97.01712 -36.52,53.35782 -82.302229,120.20419 -101.73829,148.54752 -19.436062,28.34333 -35.34292,51.75168 -35.348573,52.01856 -0.01005,0.4743 13.892722,20.83757 92.965283,136.16547 21.36287,31.15789 52.01624,75.88678 68.11859,99.39757 l 29.27701,42.74681 1.04633,-0.79808 c 2.65394,-2.02425 6.01899,-7.91328 7.55182,-13.21603 2.02755,-7.01427 2.95824,-17.12339 2.6497,-28.78099 -0.34278,-12.95155 -1.2036,-22.16106 -4.8455,-51.84 -2.43232,-19.82166 -3.20678,-27.38922 -3.66788,-35.84 -0.54993,-10.07901 -0.96246,-39.5241 -0.61789,-44.10323 1.85912,-24.70631 11.09838,-42.19178 26.1015,-49.39754 14.96999,-7.18985 33.38373,-2.82128 47.46713,11.26138 10.827,10.82646 17.66803,25.91491 19.66798,43.37936 0.59485,5.19459 1.12795,16.46275 1.1307,23.90003 l 0.002,5.68 h -14.16 c -7.788,0 -16.87898,0.0959 -20.20217,0.21206 l -6.04217,0.21117 0.23552,40.98794 c 0.12954,22.54336 0.30442,41.05993 0.38863,41.14793 0.0842,0.088 9.8612,0.2026 21.72665,0.25466 l 21.57354,0.0947 v 3.30982 c 0,17.18762 -3.50433,40.90439 -9.76876,66.11347 -4.4688,17.98317 -7.35062,27.72496 -21.86263,73.90515 l -2.86524,9.1178 4.02281,5.9222 c 12.68817,18.6798 41.11574,59.8431 41.32735,59.8431 0.51219,0 7.73229,-15.7646 12.82381,-28 20.08099,-48.2563 35.64442,-106.81215 47.20391,-177.59999 0.97718,-5.984 1.85609,-11.276 1.95315,-11.76 l 0.17645,-0.88 h 15.01459 15.01456 v 4.08 c -0.003,8.52291 -1.07248,26.39427 -2.42026,40.4 -4.09552,42.55875 -13.68531,89.78259 -28.65744,141.11999 -5.92579,20.3188 -11.63939,38.3018 -20.85833,65.6497 l -5.89575,17.4898 6.08336,8.7502 c 18.89687,27.1812 39.18778,56.7159 75.2632,109.5503 23.49396,34.4082 22.864,33.5025 23.21568,33.3772 0.15002,-0.054 2.63207,-3.5532 5.51572,-7.7772 z m -5.52531,-216.2488 V 876.48 h 15.1855 15.18551 l 0.15209,1.04 c 0.0837,0.572 0.31533,4.568 0.51479,8.88 1.452,31.38688 5.96051,69.25978 12.32752,103.55478 8.71936,46.96552 20.08605,90.21762 38.98733,148.35302 l 2.36294,7.2678 -41.80355,61.0522 c -22.99197,33.5787 -42.05299,61.4082 -42.35786,61.8434 -0.52595,0.7508 -0.55427,-9.2425 -0.55427,-195.6 z m -159.95087,-36.7844 -8.75086,-12.803 2.5546,-5.3219 c 9.10502,-18.96814 15.21211,-37.7379 19.90013,-61.1619 3.45383,-17.25728 5.43706,-32.4007 8.90548,-68 l 1.18474,-12.16 13.51838,-0.0835 c 7.43513,-0.0459 13.5184,0.0397 13.5184,0.19011 0,1.29316 -1.78794,22.67668 -2.41251,28.85338 -4.29613,42.48643 -11.9488,73.37437 -29.25509,118.08001 -2.7749,7.1681 -9.94704,24.7194 -10.21796,25.0049 -0.10694,0.1126 -4.13233,-5.5565 -8.94531,-12.5981 z m 309.71564,10.8038 c -0.53702,-1.1969 -3.33853,-8.097 -6.22557,-15.3334 -20.02486,-50.19291 -28.05136,-81.7109 -32.64729,-128.1972 -0.52692,-5.32973 -2.09021,-24.64851 -2.09127,-25.84349 v -0.72345 l 13.51907,0.0835 13.51908,0.0835 0.87328,9.12 c 4.15769,43.41974 7.18205,64.37546 12.21529,84.64 4.4306,17.83818 10.91901,35.77134 18.13556,50.12434 0.70323,1.3986 1.17616,2.7169 1.05094,2.9294 -0.43222,0.7335 -16.8319,24.7071 -17.1016,24.9997 -0.15424,0.1674 -0.68998,-0.6416 -1.24685,-1.8828 z M 715.05915,885.04 c -1.37129,-1.37546 -2.26294,-3.86973 -2.96387,-8.29117 -0.50803,-3.20464 -0.57309,-5.83584 -0.55654,-22.50883 0.0234,-23.71712 0.17683,-25.92877 3.816,-55.04 2.69558,-21.56301 2.8584,-23.65798 2.8727,-36.96 0.0134,-12.61523 -0.26838,-16.09434 -1.95702,-24.14752 -4.44087,-21.17846 -15.47117,-37.0649 -31.26199,-45.02525 -3.15798,-1.592 -8.01936,-3.22099 -12.36842,-4.14454 -4.79904,-1.01911 -13.60224,-1.0368 -18.88,-0.038 -6.42006,1.21504 -11.32137,2.8736 -17.44,5.90157 -19.73961,9.76864 -35.25718,29.50608 -41.2695,52.49232 -2.56202,9.79514 -5.82115,30.20512 -6.40035,40.08141 -0.10323,1.76 -0.26608,3.956 -0.36192,4.88 l -0.17427,1.68 h -16.02756 -16.02755 l 0.22243,-9.84 c 0.43117,-19.07462 1.20477,-26.22502 4.87271,-45.04 9.47219,-48.58787 43.012,-105.20979 80.92384,-136.61558 6.55997,-5.43421 14.60429,-10.56458 23.36217,-14.89956 14.17194,-7.01478 24.89271,-9.71801 38.56001,-9.72288 11.81142,-0.004 20.75936,2.061 31.26374,7.21559 38.31072,18.79939 61.62573,72.36262 52.88512,121.49661 -1.51805,8.53353 -5.45785,21.72444 -9.52355,31.88582 -3.84266,9.60394 -8.2073,18.90544 -20.12109,42.88 -8.75162,17.61126 -13.13488,27.37203 -18.1088,40.32531 -5.77213,15.03203 -10.61242,31.2601 -14.14842,47.43539 -1.24515,5.69588 -1.76496,7.21296 -3.86483,11.27962 -1.91523,3.70909 -3.9784,5.75968 -5.79501,5.75968 -0.27014,0 -0.95776,-0.468 -1.52803,-1.04 z m -526.61182,-0.005 c -2.79549,-1.86515 -5.80562,-8.24064 -7.45111,-15.78154 -4.80817,-22.03488 -11.55419,-42.7608 -20.77029,-63.81302 -3.63484,-8.30301 -7.96429,-17.3617 -16.59387,-34.72 -7.96923,-16.03002 -11.42138,-23.47318 -14.8416,-32 -5.16484,-12.87622 -8.83203,-25.70173 -10.39627,-36.35958 -4.06024,-27.66423 2.07596,-58.00077 16.61504,-82.14244 4.80478,-7.9782 9.83459,-14.3343 16.38972,-20.71152 11.65245,-11.33619 24.37192,-18.09814 39.48105,-20.98899 4.99114,-0.95497 16.01157,-1.18864 21.6,-0.45798 15.90809,2.07987 31.90905,8.92118 47.84001,20.45427 9.08965,6.58038 22.9505,20.25987 32.92724,32.49645 26.06089,31.9639 46.03378,72.78822 52.77423,107.86979 3.72768,19.40134 4.39395,25.64816 4.88906,45.84 l 0.21772,8.88 -14.36412,0.003 c -7.90026,0 -15.10746,0.0921 -16.01594,0.20125 l -1.65184,0.19843 -0.17584,-1.72122 c -0.0967,-0.94668 -0.33248,-3.95324 -0.52393,-6.68124 -0.59893,-8.53399 -3.14313,-25.01687 -5.48267,-35.52 -0.81925,-3.67796 -2.73075,-9.74775 -4.29146,-13.62724 -11.48781,-28.55564 -37.93543,-48.46364 -64.46245,-48.52345 -3.0976,-0.007 -6.10291,0.17997 -8.00381,0.49785 -23.91375,3.99908 -41.07134,23.85018 -45.89248,53.09696 -1.15557,7.01012 -1.46149,11.21127 -1.46184,20.07546 -3.2e-4,11.44909 0.44698,16.72493 3.51451,41.44 1.04854,8.448 2.12909,17.76102 2.40124,20.69558 0.70398,7.59101 1.11151,19.44932 1.11433,32.42442 0.004,16.3049 -0.56834,22.59904 -2.43027,26.748 -1.32128,2.94419 -2.78634,3.57302 -4.95436,2.12656 z m 396.19268,-29.41939 c -32.91005,-0.37565 -220.70823,-0.47856 -265.7274,-0.14563 l -36.44739,0.26956 0.16699,-20.04249 c 0.0919,-11.02336 0.26918,-20.14467 0.39405,-20.26954 0.26476,-0.2648 71.96268,-0.53923 230.33375,-0.88173 l 113.2,-0.24476 V 835.15027 856 l -8.88,-0.0545 c -4.884,-0.0301 -19.752,-0.17862 -33.04,-0.3303 z M 453.76001,419.6767 V 45.432496 l 11.48477,17.203754 c 18.15699,27.198476 29.82534,44.2377 66.12627,96.56375 44.21728,63.73706 61.46736,88.99954 80.23063,117.49664 8.73709,13.26964 22.31833,34.27162 22.31833,34.513 0,0.0846 -1.33372,1.70101 -2.96384,3.59207 -7.80006,9.04875 -17.10172,20.70335 -25.09123,31.43829 -52.26448,70.22432 -84.6977,147.16019 -102.32134,242.72 -8.57447,46.4927 -14.14321,98.20077 -18.09293,168 -0.54336,9.60195 -1.92532,35.90278 -1.92944,36.72 0,0.132 -6.69722,0.24 -14.88122,0.24 h -14.88 z" id="path12"/>
</svg>